<?xml version="1.0" encoding="UTF-8"?>
<svg xmlns="http://www.w3.org/2000/svg" xmlns:xlink="http://www.w3.org/1999/xlink" width="442" height="152" viewBox="0 0 442 152" role="img" aria-labelledby="title desc">
<title id="title">Hard Eng</title>
<desc id="desc">The hard-eng wordmark ends in a proof-return arrow formed from the terminal g.</desc>
<defs>
<g>
<g id="glyph-0-0">
<path d="M 37.632812 0 L 37.632812 -25.921875 C 37.632812 -27.265625 37.535156 -28.542969 37.34375 -29.761719 C 37.152344 -30.976562 36.785156 -32.046875 36.238281 -32.976562 C 35.695312 -33.902344 34.976562 -34.640625 34.078125 -35.183594 C 33.183594 -35.726562 32.03125 -36 30.625 -36 C 27.871094 -36 25.761719 -35.023438 24.289062 -33.070312 C 22.816406 -31.121094 22.078125 -28.703125 22.078125 -25.824219 L 22.078125 0 L 6.335938 0 L 6.335938 -72.574219 L 22.078125 -72.574219 L 22.078125 -41.761719 L 22.273438 -41.761719 C 23.359375 -43.679688 25.089844 -45.390625 27.457031 -46.894531 C 29.824219 -48.398438 32.671875 -49.152344 36 -49.152344 C 39.265625 -49.152344 42 -48.574219 44.207031 -47.425781 C 46.414062 -46.273438 48.207031 -44.785156 49.585938 -42.960938 C 50.960938 -41.136719 51.953125 -39.039062 52.558594 -36.671875 C 53.167969 -34.304688 53.472656 -31.9375 53.472656 -29.566406 L 53.472656 0 Z M 37.632812 0 "/>
</g>
<g id="glyph-0-1">
<path d="M 34.367188 -20.832031 L 32.351562 -20.832031 C 30.625 -20.832031 28.878906 -20.753906 27.121094 -20.59375 C 25.359375 -20.433594 23.792969 -20.128906 22.414062 -19.679688 C 21.039062 -19.230469 19.902344 -18.574219 19.007812 -17.710938 C 18.113281 -16.847656 17.664062 -15.710938 17.664062 -14.304688 C 17.664062 -13.410156 17.871094 -12.640625 18.289062 -12 C 18.703125 -11.359375 19.230469 -10.847656 19.871094 -10.464844 C 20.511719 -10.082031 21.246094 -9.808594 22.078125 -9.648438 C 22.910156 -9.488281 23.710938 -9.40625 24.480469 -9.40625 C 27.679688 -9.40625 30.128906 -10.289062 31.824219 -12.046875 C 33.519531 -13.808594 34.367188 -16.191406 34.367188 -19.199219 Z M 5.472656 -41.28125 C 8.289062 -43.96875 11.566406 -45.984375 15.3125 -47.328125 C 19.054688 -48.671875 22.878906 -49.34375 26.785156 -49.34375 C 30.816406 -49.34375 34.222656 -48.847656 37.007812 -47.855469 C 39.792969 -46.863281 42.046875 -45.328125 43.777344 -43.246094 C 45.503906 -41.167969 46.769531 -38.542969 47.566406 -35.375 C 48.367188 -32.207031 48.769531 -28.449219 48.769531 -24.097656 L 48.769531 0 L 34.367188 0 L 34.367188 -5.089844 L 34.078125 -5.089844 C 32.863281 -3.105469 31.023438 -1.566406 28.558594 -0.480469 C 26.09375 0.609375 23.425781 1.152344 20.542969 1.152344 C 18.625 1.152344 16.640625 0.894531 14.59375 0.382812 C 12.542969 -0.128906 10.671875 -0.960938 8.976562 -2.113281 C 7.28125 -3.265625 5.886719 -4.800781 4.800781 -6.71875 C 3.710938 -8.640625 3.167969 -11.007812 3.167969 -13.824219 C 3.167969 -17.28125 4.113281 -20.0625 6 -22.175781 C 7.886719 -24.289062 10.320312 -25.921875 13.296875 -27.070312 C 16.273438 -28.222656 19.585938 -28.992188 23.230469 -29.375 C 26.878906 -29.757812 30.433594 -29.953125 33.886719 -29.953125 L 33.886719 -30.71875 C 33.886719 -33.085938 33.054688 -34.832031 31.390625 -35.953125 C 29.726562 -37.074219 27.679688 -37.632812 25.246094 -37.632812 C 23.007812 -37.632812 20.847656 -37.152344 18.769531 -36.191406 C 16.6875 -35.230469 14.910156 -34.078125 13.441406 -32.734375 Z M 5.472656 -41.28125 "/>
</g>
<g id="glyph-0-2">
<path d="M 37.152344 -34.945312 C 36.449219 -35.136719 35.761719 -35.265625 35.089844 -35.328125 C 34.417969 -35.390625 33.761719 -35.425781 33.121094 -35.425781 C 31.007812 -35.425781 29.230469 -35.039062 27.792969 -34.273438 C 26.351562 -33.503906 25.199219 -32.574219 24.335938 -31.488281 C 23.472656 -30.398438 22.847656 -29.214844 22.464844 -27.9375 C 22.082031 -26.65625 21.886719 -25.535156 21.886719 -24.574219 L 21.886719 0 L 6.144531 0 L 6.144531 -47.808594 L 21.3125 -47.808594 L 21.3125 -40.894531 L 21.503906 -40.894531 C 22.71875 -43.328125 24.449219 -45.3125 26.6875 -46.847656 C 28.929688 -48.382812 31.519531 -49.152344 34.464844 -49.152344 C 35.105469 -49.152344 35.726562 -49.121094 36.335938 -49.054688 C 36.945312 -48.992188 37.441406 -48.894531 37.824219 -48.769531 Z M 37.152344 -34.945312 "/>
</g>
<g id="glyph-0-3">
<path d="M 42.335938 0 L 42.335938 -6.238281 L 42.144531 -6.238281 C 40.609375 -3.808594 38.414062 -1.9375 35.566406 -0.625 C 32.71875 0.6875 29.695312 1.34375 26.496094 1.34375 C 22.910156 1.34375 19.710938 0.640625 16.894531 -0.769531 C 14.078125 -2.175781 11.695312 -4.046875 9.742188 -6.382812 C 7.792969 -8.71875 6.304688 -11.425781 5.28125 -14.496094 C 4.257812 -17.566406 3.742188 -20.769531 3.742188 -24.097656 C 3.742188 -27.425781 4.273438 -30.609375 5.328125 -33.648438 C 6.382812 -36.6875 7.886719 -39.359375 9.839844 -41.664062 C 11.792969 -43.96875 14.160156 -45.792969 16.945312 -47.136719 C 19.726562 -48.480469 22.847656 -49.152344 26.304688 -49.152344 C 29.824219 -49.152344 32.800781 -48.480469 35.230469 -47.136719 C 37.664062 -45.792969 39.550781 -44.320312 40.894531 -42.71875 L 41.089844 -42.71875 L 41.089844 -72.574219 L 56.832031 -72.574219 L 56.832031 0 Z M 41.761719 -24 C 41.761719 -25.535156 41.488281 -27.039062 40.945312 -28.511719 C 40.402344 -29.984375 39.632812 -31.296875 38.640625 -32.449219 C 37.648438 -33.601562 36.449219 -34.527344 35.039062 -35.230469 C 33.632812 -35.933594 32.03125 -36.289062 30.238281 -36.289062 C 28.382812 -36.289062 26.753906 -35.9375 25.34375 -35.230469 C 23.9375 -34.527344 22.753906 -33.617188 21.792969 -32.496094 C 20.832031 -31.375 20.113281 -30.078125 19.632812 -28.609375 C 19.152344 -27.136719 18.910156 -25.632812 18.910156 -24.097656 C 18.910156 -22.5625 19.152344 -21.039062 19.632812 -19.535156 C 20.113281 -18.03125 20.832031 -16.703125 21.792969 -15.550781 C 22.753906 -14.398438 23.9375 -13.472656 25.34375 -12.769531 C 26.75 -12.066406 28.382812 -11.710938 30.238281 -11.710938 C 32.03125 -11.710938 33.632812 -12.0625 35.039062 -12.769531 C 36.449219 -13.472656 37.648438 -14.398438 38.640625 -15.550781 C 39.632812 -16.703125 40.398438 -18.015625 40.945312 -19.488281 C 41.488281 -20.960938 41.761719 -22.464844 41.761719 -24 Z M 41.761719 -24 "/>
</g>
<g id="glyph-0-4">
<path d="M 3.457031 -18.910156 L 3.457031 -31.390625 L 27.839844 -31.390625 L 27.839844 -18.910156 Z M 3.457031 -18.910156 "/>
</g>
<g id="glyph-0-5">
<path d="M 39.070312 -29.375 C 39.070312 -31.871094 38.289062 -34.015625 36.71875 -35.808594 C 35.152344 -37.601562 32.800781 -38.496094 29.664062 -38.496094 C 28.128906 -38.496094 26.71875 -38.257812 25.441406 -37.777344 C 24.160156 -37.296875 23.039062 -36.640625 22.078125 -35.808594 C 21.121094 -34.976562 20.351562 -34 19.777344 -32.878906 C 19.199219 -31.757812 18.878906 -30.59375 18.816406 -29.375 Z M 53.566406 -23.328125 C 53.566406 -22.6875 53.566406 -22.046875 53.566406 -21.40625 C 53.566406 -20.765625 53.535156 -20.160156 53.472656 -19.585938 L 18.816406 -19.585938 C 18.945312 -18.242188 19.34375 -17.023438 20.015625 -15.9375 C 20.6875 -14.847656 21.550781 -13.902344 22.609375 -13.105469 C 23.664062 -12.304688 24.847656 -11.679688 26.160156 -11.230469 C 27.472656 -10.785156 28.832031 -10.558594 30.238281 -10.558594 C 32.734375 -10.558594 34.847656 -11.023438 36.574219 -11.953125 C 38.304688 -12.878906 39.710938 -14.078125 40.800781 -15.550781 L 51.742188 -8.640625 C 49.503906 -5.375 46.542969 -2.863281 42.863281 -1.105469 C 39.183594 0.65625 34.910156 1.535156 30.046875 1.535156 C 26.464844 1.535156 23.070312 0.976562 19.871094 -0.144531 C 16.671875 -1.265625 13.871094 -2.894531 11.472656 -5.039062 C 9.070312 -7.183594 7.183594 -9.824219 5.808594 -12.960938 C 4.433594 -16.097656 3.742188 -19.679688 3.742188 -23.710938 C 3.742188 -27.617188 4.414062 -31.152344 5.761719 -34.320312 C 7.105469 -37.488281 8.929688 -40.175781 11.230469 -42.382812 C 13.535156 -44.589844 16.257812 -46.304688 19.390625 -47.519531 C 22.527344 -48.734375 25.921875 -49.34375 29.566406 -49.34375 C 33.085938 -49.34375 36.320312 -48.753906 39.265625 -47.566406 C 42.207031 -46.382812 44.734375 -44.671875 46.847656 -42.433594 C 48.960938 -40.191406 50.609375 -37.472656 51.792969 -34.273438 C 52.976562 -31.074219 53.566406 -27.425781 53.566406 -23.328125 Z M 53.566406 -23.328125 "/>
</g>
<g id="glyph-0-6">
<path d="M 37.535156 0 L 37.535156 -26.113281 C 37.535156 -27.457031 37.425781 -28.734375 37.199219 -29.953125 C 36.976562 -31.167969 36.609375 -32.238281 36.097656 -33.167969 C 35.585938 -34.097656 34.863281 -34.832031 33.9375 -35.375 C 33.007812 -35.917969 31.839844 -36.191406 30.433594 -36.191406 C 29.023438 -36.191406 27.792969 -35.921875 26.734375 -35.375 C 25.679688 -34.832031 24.800781 -34.078125 24.097656 -33.121094 C 23.390625 -32.160156 22.863281 -31.054688 22.511719 -29.808594 C 22.160156 -28.558594 21.984375 -27.265625 21.984375 -25.921875 L 21.984375 0 L 6.144531 0 L 6.144531 -47.808594 L 21.40625 -47.808594 L 21.40625 -41.183594 L 21.601562 -41.183594 C 22.175781 -42.207031 22.929688 -43.214844 23.855469 -44.207031 C 24.785156 -45.199219 25.871094 -46.046875 27.121094 -46.753906 C 28.367188 -47.457031 29.726562 -48.03125 31.199219 -48.480469 C 32.671875 -48.929688 34.238281 -49.152344 35.902344 -49.152344 C 39.101562 -49.152344 41.824219 -48.574219 44.0625 -47.425781 C 46.304688 -46.273438 48.113281 -44.785156 49.488281 -42.960938 C 50.863281 -41.136719 51.855469 -39.039062 52.464844 -36.671875 C 53.074219 -34.304688 53.375 -31.9375 53.375 -29.566406 L 53.375 0 Z M 37.535156 0 "/>
</g>
<g id="glyph-0-7">
<path d="M 56.832031 -4.511719 C 56.832031 0.160156 56.160156 4.222656 54.816406 7.679688 C 53.472656 11.136719 51.585938 14 49.152344 16.273438 C 46.71875 18.542969 43.761719 20.238281 40.273438 21.359375 C 36.785156 22.480469 32.929688 23.039062 28.703125 23.039062 C 24.480469 23.039062 20.144531 22.398438 15.695312 21.121094 C 11.246094 19.839844 7.390625 17.984375 4.128906 15.550781 L 12 4.320312 C 14.304688 6.367188 16.847656 7.886719 19.632812 8.878906 C 22.417969 9.871094 25.152344 10.367188 27.839844 10.367188 C 32.449219 10.367188 35.855469 9.152344 38.0625 6.71875 C 40.273438 4.289062 41.375 1.054688 41.375 -2.976562 L 41.375 -5.855469 L 41.089844 -5.855469 C 39.617188 -3.9375 37.632812 -2.398438 35.136719 -1.246094 C 32.640625 -0.09375 29.792969 0.480469 26.59375 0.480469 C 22.945312 0.480469 19.710938 -0.175781 16.894531 -1.488281 C 14.078125 -2.800781 11.695312 -4.574219 9.742188 -6.816406 C 7.792969 -9.054688 6.304688 -11.664062 5.28125 -14.640625 C 4.257812 -17.617188 3.742188 -20.769531 3.742188 -24.097656 C 3.742188 -27.425781 4.257812 -30.59375 5.28125 -33.601562 C 6.304688 -36.609375 7.792969 -39.265625 9.742188 -41.566406 C 11.695312 -43.871094 14.078125 -45.710938 16.894531 -47.089844 C 19.710938 -48.464844 22.910156 -49.152344 26.496094 -49.152344 C 29.503906 -49.152344 32.382812 -48.542969 35.136719 -47.328125 C 37.886719 -46.113281 40.097656 -44.222656 41.761719 -41.664062 L 41.953125 -41.664062 L 41.953125 -47.808594 L 56.832031 -47.808594 Z M 41.855469 -24.191406 C 41.855469 -25.792969 41.585938 -27.328125 41.039062 -28.800781 C 40.496094 -30.273438 39.710938 -31.566406 38.6875 -32.6875 C 37.664062 -33.808594 36.449219 -34.6875 35.039062 -35.328125 C 33.632812 -35.96875 32.03125 -36.289062 30.238281 -36.289062 C 28.449219 -36.289062 26.863281 -35.96875 25.488281 -35.328125 C 24.113281 -34.6875 22.945312 -33.824219 21.984375 -32.734375 C 21.023438 -31.648438 20.289062 -30.367188 19.777344 -28.894531 C 19.265625 -27.421875 19.007812 -25.855469 19.007812 -24.191406 C 19.007812 -22.59375 19.265625 -21.054688 19.777344 -19.585938 C 20.289062 -18.113281 21.023438 -16.816406 21.984375 -15.695312 C 22.945312 -14.574219 24.113281 -13.679688 25.488281 -13.007812 C 26.863281 -12.335938 28.449219 -12 30.238281 -12 C 32.03125 -12 33.648438 -12.335938 35.089844 -13.007812 C 36.527344 -13.679688 37.742188 -14.558594 38.734375 -15.648438 C 39.726562 -16.734375 40.496094 -18.015625 41.039062 -19.488281 C 41.582031 -20.960938 41.855469 -22.527344 41.855469 -24.191406 Z M 41.855469 -24.191406 "/>
</g>
</g>
</defs>
<g fill="#171c22">
<use xlink:href="#glyph-0-0" x="10" y="106"/>
<use xlink:href="#glyph-0-1" x="69" y="106"/>
<use xlink:href="#glyph-0-2" x="123" y="106"/>
<use xlink:href="#glyph-0-3" x="159" y="106"/>
<use xlink:href="#glyph-0-4" x="222" y="106"/>
<use xlink:href="#glyph-0-5" x="253" y="106"/>
<use xlink:href="#glyph-0-6" x="310" y="106"/>
<use xlink:href="#glyph-0-7" x="369" y="106"/>
</g>
<path d="M414 128H374" fill="none" stroke="#171c22" stroke-width="13" stroke-linecap="square"/>
<path d="M358 128L377 111V145Z" fill="#171c22"/>
</svg>
